<?xml version="1.0" encoding="UTF-8"?>
<svg id="Layer_1" xmlns="http://www.w3.org/2000/svg" version="1.1" xmlns:xlink="http://www.w3.org/1999/xlink" viewBox="0 0 214 66">
  <!-- Generator: Adobe Illustrator 29.5.1, SVG Export Plug-In . SVG Version: 2.1.0 Build 141)  -->
  <defs>
    <style>
      .st0 {
        fill: url(#linear-gradient2);
      }

      .st1 {
        fill: #1f6618;
      }

      .st2 {
        fill: url(#linear-gradient10);
      }

      .st3 {
        fill: url(#linear-gradient1);
      }

      .st4 {
        fill: url(#linear-gradient9);
      }

      .st5 {
        fill: url(#linear-gradient8);
      }

      .st6 {
        fill: url(#linear-gradient11);
      }

      .st7 {
        fill: url(#radial-gradient);
      }

      .st8 {
        fill: url(#linear-gradient12);
      }

      .st9 {
        fill: url(#linear-gradient7);
      }

      .st10 {
        fill: url(#linear-gradient4);
      }

      .st11 {
        fill: url(#linear-gradient5);
      }

      .st12 {
        fill: url(#linear-gradient3);
      }

      .st13 {
        fill: #fff;
        font-family: BrushScriptMT, 'Brush Script MT';
        font-size: 12.5px;
      }

      .st14 {
        fill: url(#linear-gradient6);
      }

      .st15 {
        fill: url(#linear-gradient);
      }
    </style>
    <linearGradient id="linear-gradient" x1="31.36" y1="1.77" x2="30.52" y2="68.02" gradientUnits="userSpaceOnUse">
      <stop offset="0" stop-color="#daf158"/>
      <stop offset=".72" stop-color="#1b7711"/>
    </linearGradient>
    <linearGradient id="linear-gradient1" x1="31.28" y1="16.37" x2="30.68" y2="53.61" gradientUnits="userSpaceOnUse">
      <stop offset="0" stop-color="#daf158"/>
      <stop offset=".57" stop-color="#1b7711"/>
    </linearGradient>
    <linearGradient id="linear-gradient2" x1="21.65" y1="34.02" x2="40.95" y2="34.02" gradientUnits="userSpaceOnUse">
      <stop offset="0" stop-color="#49ba30"/>
      <stop offset="1" stop-color="#2a9a24"/>
    </linearGradient>
    <linearGradient id="linear-gradient3" x1="24.71" y1="19.03" x2="44.83" y2="19.03" gradientUnits="userSpaceOnUse">
      <stop offset=".08" stop-color="#000"/>
      <stop offset="1" stop-color="#fff"/>
    </linearGradient>
    <linearGradient id="linear-gradient4" x1="84.67" y1="3.69" x2="82.87" y2="43.92" xlink:href="#linear-gradient1"/>
    <linearGradient id="linear-gradient5" x1="131.04" y1="2.57" x2="132.22" y2="44.96" xlink:href="#linear-gradient1"/>
    <linearGradient id="linear-gradient6" x1="180.97" y1="44.24" x2="182.49" y2="-3.79" gradientUnits="userSpaceOnUse">
      <stop offset=".37" stop-color="#1b7711"/>
      <stop offset=".97" stop-color="#daf158"/>
    </linearGradient>
    <linearGradient id="linear-gradient7" x1="163.6" y1="22.72" x2="89.47" y2="112.96" gradientUnits="userSpaceOnUse">
      <stop offset=".18" stop-color="#158645"/>
      <stop offset=".7" stop-color="#0c5123"/>
    </linearGradient>
    <linearGradient id="linear-gradient8" x1="65.09" y1="55.27" x2="75.29" y2="55.27" gradientUnits="userSpaceOnUse">
      <stop offset="0" stop-color="#82d096"/>
      <stop offset="1" stop-color="#0c5123"/>
    </linearGradient>
    <linearGradient id="linear-gradient9" x1="74.22" y1="57.7" x2="80.84" y2="57.7" gradientUnits="userSpaceOnUse">
      <stop offset="0" stop-color="#82d096"/>
      <stop offset="1" stop-color="#0c5123"/>
    </linearGradient>
    <linearGradient id="linear-gradient10" x1="70.39" y1="52.84" x2="83.97" y2="52.84" xlink:href="#linear-gradient9"/>
    <linearGradient id="linear-gradient11" x1="75.67" y1="55.27" x2="78.48" y2="55.27" xlink:href="#linear-gradient9"/>
    <linearGradient id="linear-gradient12" x1="69.09" y1="55.27" x2="84.02" y2="55.27" gradientTransform="translate(9.85 110.53) scale(1 -1)" gradientUnits="userSpaceOnUse">
      <stop offset=".03" stop-color="#929392"/>
      <stop offset="1" stop-color="#000"/>
    </linearGradient>
    <radialGradient id="radial-gradient" cx="94.24" cy="55.27" fx="94.24" fy="55.27" r="1.81" gradientUnits="userSpaceOnUse">
      <stop offset=".03" stop-color="#929392"/>
      <stop offset="1" stop-color="#000"/>
    </radialGradient>
  </defs>
  <g>
    <path d="M3271.45,550.57l8.2-2.48c49.29-97.45,147.09-161.85,238.47-216.66,115.78-69.44,242.45-123.14,345.08-212.75-1.9,21.2,15.78,68.9,2.17,84.13-136.69,106.13-423.89,202.31-504.17,359.6-5.45,10.67-12.87,28-11.86,40.13,140.22-144.51,339.54-213.12,499.97-331.86,8.29-1.59,6.72,3.2,5.12,9.12-28.42,104.58-208.72,190.95-294,249.89-108.56,75.04-211.76,175.5-265.77,298.09-3.42,7.75-14.74,49.98-17.32,50.73-7.53,2.22-6.03-3.48-7.77-8.03-61.38-161.14-152.78-254.6-293.6-350.44-80.41-54.72-195.49-107.99-251.73-188.17-13.42-19.13-29.51-43.38-30.76-65.22,163.68,119.14,364.92,190.39,507.93,335.88,1.59-9.76-5.09-25.96-9.28-34.7-77.16-160.59-369.51-258.33-506.75-365.03-12.79-14.32,2.67-63.71,2.17-84.13,108.6,94.58,243.55,149.97,365.11,224.71,84.35,51.86,175.42,115.74,218.78,207.17Z"/>
    <path d="M3307.33,374.6c-7.38.91-3.48-8.35-2.11-12.11,55.8-153.15,303.19-217.14,429.99-295.8l23.65,50.07-3.55,3.81c-108.12,59.83-232.24,95.29-338.65,157.39-40.19,23.45-87.81,54.63-109.34,96.63Z"/>
    <path d="M3239.36,374.61l-34.06-39.87c-118.47-97.59-271.71-135.23-405.61-206.3l-7.21-7.69c7.89-9.6,16.23-48.79,31.17-44.5,76.73,46.21,161.78,76.84,239.87,120.33,71.71,39.94,151.95,95.24,175.83,178.02Z"/>
    <path d="M3239.36,314.62l-27.85-38.07c-106.94-105.84-258.27-147.01-379.72-232.25-1.38-5.73,24.96-41.84,31.9-39.99,127.21,92.53,327.4,144.01,375.67,310.31Z"/>
    <path d="M3315.33,314.61c-7.74.89-2.16-7.29-1.1-11.09,40.25-144.6,261.74-218.16,372.86-299.25l30.63,38.23-4.28,8.22c-92.47,59.8-200.5,99.73-292.17,159.86-40.14,26.33-85.49,59.73-105.94,104.03Z"/>
  </g>
  <g>
    <g>
      <path class="st15" d="M43.18,19.15v.59c3.2-1.97,6.87-3.06,10.69-3.06h.29l-22.95,42.62L8.26,16.68c3.79,0,7.44,1.06,10.65,2.96L3.11,2.8v30.08c0,8.31,2.74,15.4,8.21,21.27,5.48,5.87,12.09,8.81,19.84,8.81s14.36-2.94,19.84-8.81,8.21-12.96,8.21-21.27V2.8l-16.03,16.35Z"/>
      <path class="st3" d="M31.21,55.28l18.62-34.58h-.23c-3.1,0-6.08.88-8.67,2.48-2.63,1.62-4.86,3.96-6.42,6.87l-3.29,6.12-3.17-5.9c-1.65-3.06-4.02-5.51-6.81-7.17-2.6-1.55-5.56-2.4-8.64-2.4l18.62,34.58Z"/>
      <path class="st0" d="M31.3,42.98l9.65-17.92h-.12c-1.61,0-3.15.46-4.49,1.29-1.36.84-2.52,2.05-3.33,3.56l-1.7,3.17-1.64-3.06c-.85-1.59-2.08-2.86-3.53-3.72-1.35-.8-2.88-1.25-4.48-1.25l9.65,17.92Z"/>
    </g>
    <ellipse class="st1" cx="31.3" cy="22.55" rx="4.16" ry="4.46"/>
    <path class="st12" d="M27.26,18.99l-2.55-1.25.04-.08,6.63-3.11,6.5,3.08-.75.42v4.15c.03.18.32.17.38.58.14.95-1.13.96-.98-.01.05-.33.39-.47.39-.51v-4.08l-1.58.8v2.58c-2.37-2.16-5.72-2.16-8.08,0v-2.58Z"/>
  </g>
  <g>
    <path class="st10" d="M64.61,23.65V3.51h11.2v20.15c0,2.38.82,4.41,2.46,6.1s3.62,2.53,5.94,2.53,4.29-.84,5.94-2.53c1.64-1.69,2.46-3.72,2.46-6.1V3.51h11.2v20.15c0,5.56-1.91,10.31-5.74,14.25-3.83,3.93-8.45,5.9-13.86,5.9s-10.04-1.97-13.86-5.9c-3.83-3.93-5.74-8.68-5.74-14.25Z"/>
    <path class="st11" d="M141.52,3.51h12.94l-23.39,41.62L107.68,3.51h12.94l10.45,18.62,10.45-18.62Z"/>
    <path class="st14" d="M192.7,3.51h12.94l-23.39,41.62L158.87,3.51h12.94l10.45,18.62,10.45-18.62Z"/>
  </g>
  <g>
    <rect class="st9" x="94.09" y="47.79" width="86.61" height="13.68" rx="6.84" ry="6.84"/>
    <text class="st13" transform="translate(107.38 58.24) scale(1.07 1)"><tspan x="0" y="0">E-Learning</tspan></text>
    <g>
      <path class="st5" d="M73.95,50.88h-2.75c-1.71.13-3.03,1.55-3.12,3.25-.04.67-.04,1.62,0,2.29.1,1.57,1.27,2.95,2.84,3.19,1.01.07,2.02.02,3.04.03v-8.77Z"/>
      <path class="st4" d="M80.83,55.75h-1.9c-.18.35-.46.63-.88.67-.68.05-1.43-.03-2.11-.01-.35-.08-.6-.34-.76-.65h-.97v3.91h3.49c1.54-.12,2.78-1.28,3.06-2.78.07-.38.07-.74.06-1.12Z"/>
      <path class="st2" d="M74.22,50.88v3.91h.97c.16-.31.4-.57.76-.65.68.02,1.44-.06,2.11-.01.42.03.69.32.88.67h1.9c0-.38,0-.75-.06-1.12-.28-1.51-1.52-2.67-3.06-2.78h-3.49Z"/>
      <path class="st6" d="M78.48,55.28c0-.32-.21-.65-.53-.73-.29-.08-1.51-.08-1.79,0-.67.21-.66,1.25.02,1.44.29.08,1.51.08,1.79,0,.3-.09.5-.4.51-.71Z"/>
    </g>
    <rect class="st8" x="78.93" y="54.97" width="14.94" height=".59" transform="translate(172.8 110.53) rotate(-180)"/>
    <circle class="st7" cx="94.24" cy="55.27" r="1.81"/>
  </g>
</svg>